<svg id="Capa_1" enable-background="new 0 0 512 512" height="512" viewBox="0 0 512 512" width="512" xmlns="http://www.w3.org/2000/svg"><g><path d="m502.002 456h-42.6l-147.4-400h42.6z" fill="#fff"/><path d="m200.002 56-147.4 400h-42.6l147.4-400z" fill="#fff"/><path d="m200.002 56h112l147.4 400h-406.8z" fill="#868eaf"/><path d="m486.002 416h-40v-240c0-11.046 8.954-20 20-20 11.046 0 20 8.954 20 20z" fill="#ffcd69"/><path d="m66.002 416h-40v-240c0-11.046 8.954-20 20-20 11.046 0 20 8.954 20 20z" fill="#ffcd69"/><circle cx="46.002" cy="131" fill="#ffe6b4" r="25"/><circle cx="466.002" cy="131" fill="#ffe6b4" r="25"/><path d="m66.002 221h380v180h-380z" fill="#bfdbff" transform="matrix(-1 0 0 -1 512.004 622)"/><path d="m26.002 201h40v40h-40z" fill="#ffe6b4"/><path d="m446.002 201h40v40h-40z" fill="#ffe6b4"/><g><path d="m234.117 266.714c-.023 0-.047 0-.07 0-5.523.038-9.969 4.546-9.931 10.068l.18 26.16-15.039-30.521c-2.055-4.169-6.71-6.372-11.239-5.319-4.527 1.055-7.731 5.091-7.731 9.739v68.443c0 5.523 4.477 10 10 10s10-4.477 10-10v-25.525l14.052 28.518c2.681 5.427 7.945 6.907 11.971 5.968 3.812-.89 8.263-4.376 8.263-11.34l-.457-66.261c-.038-5.498-4.508-9.93-9.999-9.93z"/><path d="m268.859 266.714c-5.523 0-10 4.477-10 10v68.571c0 5.523 4.477 10 10 10s10-4.477 10-10v-68.571c0-5.523-4.477-10-10-10z"/><path d="m164.001 266.714c-5.523 0-10 4.477-10 10v68.571c0 5.523 4.477 10 10 10s10-4.477 10-10v-68.571c0-5.523-4.477-10-10-10z"/><path d="m406.003 266.714c-5.523 0-10 4.477-10 10v24.286h-14.286v-24.286c0-5.523-4.477-10-10-10s-10 4.477-10 10v68.571c0 5.523 4.477 10 10 10s10-4.477 10-10v-24.285h14.286v24.286c0 5.523 4.477 10 10 10s10-4.477 10-10v-68.571c0-5.524-4.477-10.001-10-10.001z"/><path d="m131.715 286.714c5.523 0 10-4.477 10-10s-4.477-10-10-10h-25.715c-5.523 0-10 4.477-10 10v68.571c0 5.523 4.477 10 10 10s10-4.477 10-10v-24.285h13.671c5.523 0 10-4.477 10-10s-4.477-10-10-10h-13.671v-14.286z"/><path d="m330.449 302.522c-5.823-2.79-11.289-5.813-13.561-7.094-.605-.889-.989-2.619-.677-4.491.12-.719.651-3.121 2.473-3.833 4.246-1.665 8.924 2.742 9.603 3.411 3.748 4.055 10.065 4.312 14.123.563 4.028-3.723 4.309-9.999.639-14.058-5.239-5.72-17.793-13.965-31.651-8.542-7.853 3.072-13.429 10.241-14.915 19.177-1.511 9.085 1.487 18.062 7.825 23.427.451.382.936.724 1.448 1.021.311.18 7.717 4.462 16.053 8.456 5.6 2.683 6.039 6.487 5.421 9.207-.623 2.743-2.776 5.52-5.685 5.52-5.651 0-9.234-4.505-10.197-5.887-3.16-4.529-9.392-5.639-13.923-2.479-4.529 3.16-5.639 9.394-2.479 13.923 6.31 9.043 16.254 14.442 26.6 14.442 12.01 0 22.368-8.672 25.188-21.09 2.969-13.078-3.423-25.511-16.285-31.673z"/><path d="m256.002 161c5.523 0 10-4.477 10-10v-25c0-5.523-4.477-10-10-10s-10 4.477-10 10v25c0 5.523 4.477 10 10 10z"/><path d="m511.383 452.54-15.38-41.737v-234.803c0-7.16-2.538-13.726-6.74-18.887 7.196-6.412 11.74-15.738 11.74-26.113 0-19.299-15.701-35-35-35s-35 15.701-35 35c0 10.375 4.544 19.701 11.74 26.113-4.202 5.161-6.74 11.728-6.74 18.887v35h-13.627l-19.143-51.95c-1.44-3.92-5.21-6.55-9.38-6.55-1.18 0-2.35.21-3.46.62-2.51.93-4.5 2.77-5.62 5.19-1.12 2.43-1.23 5.15-.31 7.65l16.598 45.04h-21.283l-53.433-145h21.288l5.72 15.51c1.44 3.92 5.21 6.55 9.38 6.55 1.18 0 2.34-.21 3.45-.62 2.51-.92 4.51-2.77 5.63-5.19 1.12-2.43 1.22-5.14.3-7.65l-8.13-22.06c-1.44-3.91-5.21-6.54-9.38-6.54h-197.202c-4.189 0-7.935 2.611-9.383 6.542l-58.392 158.458h-13.625v-35c0-7.16-2.533-13.73-6.736-18.891 7.192-6.413 11.736-15.736 11.736-26.109 0-19.299-15.701-35-35-35s-35 15.701-35 35c0 10.372 4.543 19.695 11.736 26.109-4.204 5.161-6.737 11.731-6.737 18.891v234.797l-15.383 41.745c-1.13 3.068-.69 6.495 1.18 9.177s4.934 4.281 8.203 4.281h492.003c3.27 0 6.33-1.6 8.2-4.28s2.31-6.11 1.18-9.18zm-265.381-386.54v15c0 5.523 4.477 10 10 10s10-4.477 10-10v-15h39.028l53.433 145h-92.461v-15c0-5.523-4.477-10-10-10s-10 4.477-10 10v15h-92.461l53.433-145zm-81.629 0h21.286l-53.433 145h-21.286zm-88.372 165h360.002v160h-360.002zm-30.373 215h-21.285l7.37-20h21.286zm10.372-40h-20v-155h20zm0-175h-20v-20h20zm0-40h-20v-15c0-5.514 4.486-10 10-10s10 4.486 10 10zm-10-45c-8.271 0-15-6.729-15-15s6.729-15 15-15 15 6.729 15 15-6.729 15-15 15zm200.002 300h-179.059l12.898-35h166.161zm20 0v-35h166.161l12.898 35zm185.001-315c0-8.271 6.729-15 15-15s15 6.729 15 15-6.729 15-15 15-15-6.729-15-15zm5 60v-15c0-5.514 4.486-10 10-10s10 4.486 10 10v15zm20 20v20h-20v-20zm-20 40h20v155h-20zm10.373 195-7.37-20h21.287l7.37 20z"/><circle cx="378.284" cy="120.28" r="10"/></g></g></svg>