<svg height="480pt" viewBox="-64 0 480 480" width="480pt" xmlns="http://www.w3.org/2000/svg"><path d="m8 200h32v256c0 8.835938-7.164062 16-16 16s-16-7.164062-16-16zm0 0" fill="#7d4739"/><path d="m344 120h-79.503906c-39.882813 0-76.707032-21.371094-96.496094-56s-56.613281-56-96.496094-56h-63.503906v224h63.503906c39.882813 0 76.707032 21.371094 96.496094 56s56.613281 56 96.496094 56h79.503906l-80-112zm0 0" fill="#005e9c"/><path d="m0 8v448c0 13.253906 10.746094 24 24 24s24-10.746094 24-24v-216h23.496094c37.023437.035156 71.199218 19.871094 89.601562 52 21.246094 37.0625 60.679688 59.941406 103.398438 60h79.503906c2.996094-.003906 5.738281-1.679688 7.105469-4.339844 1.371093-2.664062 1.136719-5.871094-.601563-8.308594l-76.671875-107.351562 76.671875-107.351562c1.738282-2.4375 1.972656-5.644532.601563-8.308594-1.367188-2.660156-4.109375-4.335938-7.105469-4.339844h-79.503906c-37.007813-.054688-71.160156-19.886719-89.550782-52-21.257812-37.074219-60.714843-59.9570312-103.449218-60h-63.496094c-4.417969 0-8 3.582031-8 8zm16 8h55.496094c37.023437.035156 71.199218 19.871094 89.601562 52 21.246094 37.0625 60.679688 59.941406 103.398438 60h64l-70.960938 99.351562c-2 2.777344-2 6.519532 0 9.296876l70.921875 99.351562h-64c-37.007812-.054688-71.164062-19.886719-89.554687-52-21.25-37.0625-60.683594-59.941406-103.40625-60h-55.496094zm0 224h16v216c0 4.417969-3.582031 8-8 8s-8-3.582031-8-8zm0 0"/></svg>