<svg height="480pt" viewBox="-48 0 480 480" width="480pt" xmlns="http://www.w3.org/2000/svg"><path d="m376 344h-264v-224h264l-80 112zm0 0" fill="#168fba"/><path d="m272 232-160 112v-224l160-112zm0 0" fill="#137ba1"/><path d="m8 200h32v256c0 8.835938-7.164062 16-16 16s-16-7.164062-16-16zm0 0" fill="#494342"/><path d="m8 8h264v224h-264zm0 0" fill="#005e9c"/><path d="m155.601562 60-20 20-20-20c-15.464843-15.460938-40.539062-15.460938-56 0-15.464843 15.464844-15.464843 40.535156 0 56l76 76 76-76c15.460938-15.464844 15.460938-40.535156 0-56-15.464843-15.460938-40.539062-15.460938-56 0zm0 0" fill="#ee3446"/><path d="m129.945312 197.65625c3.121094 3.121094 8.1875 3.121094 11.3125 0l76-76c12.257813-11.976562 17.132813-29.617188 12.757813-46.1875-4.371094-16.574219-17.3125-29.515625-33.882813-33.886719-16.570312-4.371093-34.210937.503907-46.1875 12.761719l-14.34375 14.34375-14.34375-14.34375c-11.976562-12.257812-29.621093-17.132812-46.191406-12.761719-16.570312 4.371094-29.511718 17.3125-33.882812 33.886719-4.371094 16.570312.5 34.210938 12.761718 46.1875zm-64.6875-132c12.339844-12.339844 32.347657-12.339844 44.6875 0l20 20c3.121094 3.121094 8.1875 3.121094 11.3125 0l20-20c12.5-11.941406 32.183594-11.941406 44.6875 0 12.3125 12.351562 12.3125 32.335938 0 44.6875l-70.34375 70.34375-70.34375-70.34375c-12.339843-12.339844-12.339843-32.347656 0-44.6875zm0 0"/><path d="m24 480c13.253906 0 24-10.746094 24-24v-216h56v104c0 4.417969 3.582031 8 8 8h264c2.996094-.003906 5.738281-1.679688 7.105469-4.339844 1.371093-2.664062 1.136719-5.871094-.601563-8.308594l-76.671875-107.351562 76.671875-107.351562c1.738282-2.4375 1.972656-5.644532.601563-8.308594-1.367188-2.660156-4.109375-4.335938-7.105469-4.339844h-96v-104c0-4.417969-3.582031-8-8-8h-264c-4.417969 0-8 3.582031-8 8v448c0 13.253906 10.746094 24 24 24zm256-248v-104h80.457031l-70.960937 99.351562c-2 2.777344-2 6.519532 0 9.296876l70.960937 99.351562h-240.457031v-96h152c4.417969 0 8-3.582031 8-8zm-264-216h248v208h-248zm0 224h16v216c0 4.417969-3.582031 8-8 8s-8-3.582031-8-8zm0 0"/></svg>