<svg height="480pt" viewBox="-56 0 480 480.40393" width="480pt" xmlns="http://www.w3.org/2000/svg"><path d="m336.664062 272.042969h-.054687c42.726563-73.96875 26.171875-167.9375-39.261719-222.851563-65.433594-54.914062-160.847656-54.914062-226.28125 0-65.433594 54.914063-81.988281 148.882813-39.257812 222.851563l.175781.261719c4.09375 7.054687 8.675781 13.816406 13.710937 20.234374l111.199219 164.054688h.105469c5.679688 9.792969 16.140625 15.820312 27.460938 15.820312 11.316406 0 21.78125-6.027343 27.457031-15.820312h.144531l111.289062-164.800781c4.722657-6.09375 9.042969-12.492188 12.929688-19.152344zm0 0" fill="#005e9c"/><path d="m328.199219 184.042969c0 79.527343-64.46875 144-144 144-79.527344 0-144-64.472657-144-144 0-79.53125 64.472656-144 144-144 79.53125 0 144 64.46875 144 144zm0 0" fill="#168fba"/><path d="m272.199219 160.042969h-88l-48-48h88zm0 0" fill="#f29a2b"/><path d="m184.199219 160.042969h88v88h-88zm0 0" fill="#999798"/><path d="m96.199219 104.042969h16v64h-16zm0 0" fill="#f29a2b"/><path d="m216.199219 192.042969h32v24h-32zm0 0" fill="#ee3446"/><path d="m104.199219 150.441406 32-38.398437 48 48h-88zm0 0" fill="#de722a"/><path d="m184.199219 160.042969v88h-88v-88zm0 0" fill="#adabac"/><path d="m128.199219 200.042969h32v48h-32zm0 0" fill="#005e9c"/><path d="m184.199219 336.042969c83.949219 0 152-68.054688 152-152 0-83.949219-68.050781-152-152-152-83.945313 0-152 68.050781-152 152 .09375 83.90625 68.089843 151.90625 152 152zm0-288c75.109375 0 136 60.886719 136 136 0 75.109375-60.890625 136-136 136s-136-60.890625-136-136c.085937-75.078125 60.925781-135.917969 136-136zm0 0"/><path d="m24.871094 276.042969.152344.269531c4.183593 7.21875 8.863281 14.136719 14.007812 20.707031l111.199219 164.054688c.191406.28125.402343.550781.632812.800781 7.277344 11.535156 19.960938 18.527344 33.601563 18.527344 13.636718 0 26.320312-6.992188 33.597656-18.527344.238281-.269531.457031-.550781.65625-.847656l110.945312-164.371094c4.832032-6.222656 9.25-12.757812 13.222657-19.566406l.402343-.574219c.273438-.414063.511719-.847656.710938-1.296875 44.210938-77.453125 26.515625-175.460938-41.992188-232.5625-68.507812-57.097656-168.097656-56.847656-236.320312.59375-68.21875 57.441406-85.425781 155.539062-40.824219 232.769531zm159.328125-260c60.019531.003906 115.476562 32.027343 145.484375 84.003906 30.007812 51.980469 30.003906 116.015625-.003906 167.996094l-.191407.351562-.128906.199219c-3.804687 6.503906-8.03125 12.753906-12.648437 18.710938l-110.558594 163.714843c-.4375.445313-.816406.941407-1.128906 1.476563-4.242188 7.355468-12.085938 11.886718-20.574219 11.886718-8.492188 0-16.335938-4.53125-20.578125-11.886718-.304688-.519532-.671875-1-1.09375-1.429688l-110.824219-163.496094c-4.808594-6.125-9.183594-12.578124-13.089844-19.3125l-.046875-.070312-.097656-.167969c-29.996094-51.976562-29.992188-116.007812.015625-167.976562 30.003906-51.972657 85.453125-83.992188 145.464844-84zm0 0"/><path d="m96.199219 256.042969h176c4.417969 0 8-3.582031 8-8v-88c0-2.121094-.84375-4.15625-2.34375-5.65625l-48-48c-1.5-1.5-3.535157-2.34375-5.65625-2.34375h-88v.070312c-.128907 0-.238281-.0625-.359375-.0625-2.246094.101563-4.34375 1.144531-5.785156 2.871094l-17.855469 21.425781v-24.304687h-16v43.503906l-6.144531 7.375c-.492188.597656-.902344 1.261719-1.207032 1.976563-.015625.066406-.035156.132812-.054687.199218-.316407.828125-.492188 1.699219-.519531 2.585938 0 .125-.074219.230468-.074219.359375v88c0 4.417969 3.582031 8 8 8zm168-16h-72v-72h72zm-43.3125-120 32 32h-65.375l-32-32zm-84.152344 3.847656 28.152344 28.152344h-51.605469zm-32.535156 44.152344h72v72h-40v-32h24v-16h-32c-4.417969 0-8 3.582031-8 8v40h-16zm0 0"/><path d="m216.199219 224.042969h32v-16h-24v-8h8v-16h-16c-4.417969 0-8 3.582031-8 8v24c0 4.417969 3.582031 8 8 8zm0 0"/></svg>