<svg height="480pt" viewBox="-56 0 480 480.02859" width="480pt" xmlns="http://www.w3.org/2000/svg"><path d="m360.015625 184.03125c.015625-91.996094-70.816406-168.484375-162.539063-175.519531-91.726562-7.035157-173.394531 57.753906-187.410156 148.675781-14.011718 90.921875 44.359375 177.292969 133.949219 198.203125l40 116.640625 40-116.640625c79.582031-18.671875 135.886719-89.613281 136-171.359375zm0 0" fill="#005e9c"/><path d="m328.015625 183.6875c0 79.527344-64.472656 144-144 144-79.53125 0-144-64.472656-144-144 0-79.53125 64.46875-144 144-144 79.527344 0 144 64.46875 144 144zm0 0" fill="#168fba"/><path d="m256.015625 248.03125h-32c-4.417969 0-8-3.582031-8-8v-64c0-4.417969 3.582031-8 8-8h32c22.089844 0 40 17.90625 40 40 0 22.089844-17.910156 40-40 40zm-24-16h24c13.253906 0 24-10.746094 24-24 0-13.257812-10.746094-24-24-24h-24zm0 0" fill="#de722a"/><g fill="#d8d8d3"><path d="m126.671875 140.46875-13.3125-8.878906 12.359375-18.542969-11.359375-11.359375c-2.699219-2.699219-3.117187-6.925781-1-10.097656l16-24 13.3125 8.878906-12.363281 18.546875 11.363281 11.359375c2.695313 2.695312 3.113281 6.921875 1 10.09375zm0 0"/><path d="m166.671875 140.46875-13.3125-8.878906 12.359375-18.542969-11.359375-11.359375c-2.699219-2.699219-3.117187-6.925781-1-10.097656l16-24 13.3125 8.878906-12.363281 18.546875 11.363281 11.359375c2.695313 2.695312 3.113281 6.921875 1 10.09375zm0 0"/><path d="m206.671875 140.46875-13.3125-8.878906 12.359375-18.542969-11.359375-11.359375c-2.699219-2.699219-3.117187-6.925781-1-10.097656l16-24 13.3125 8.878906-12.363281 18.546875 11.363281 11.359375c2.695313 2.695312 3.113281 6.921875 1 10.09375zm0 0"/></g><path d="m112.015625 160.03125h112v104h-112zm0 0" fill="#f29a2b"/><path d="m184.015625 335.6875c83.945313 0 152-68.054688 152-152 0-83.949219-68.054687-152-152-152-83.949219 0-152 68.050781-152 152 .089844 83.90625 68.089844 151.90625 152 152zm0-288c75.109375 0 136 60.886719 136 136 0 75.109375-60.890625 136-136 136-75.113281 0-136-60.890625-136-136 .082031-75.078125 60.921875-135.917969 136-136zm0 0"/><path d="m137.863281 362.117188 38.582031 112.503906c1.109376 3.234375 4.148438 5.40625 7.570313 5.40625 3.417969 0 6.457031-2.171875 7.566406-5.40625l38.585938-112.503906c89.664062-23.230469 148.082031-109.496094 136.371093-201.378907-11.710937-91.882812-89.898437-160.738281-182.523437-160.738281-92.628906 0-170.8125 68.855469-182.523437 160.738281-11.710938 91.882813 46.703124 178.148438 136.371093 201.378907zm46.152344-346.085938c85.289063.078125 156.984375 64.054688 166.738281 148.78125 9.753906 84.730469-45.523437 163.324219-128.5625 182.785156-2.683594.628906-4.855468 2.59375-5.746094 5.199219l-32.429687 94.570313-32.433594-94.539063c-.890625-2.605469-3.0625-4.570313-5.742187-5.199219-83.109375-19.402344-138.460938-98.03125-128.703125-182.8125 9.761719-84.78125 81.535156-148.777344 166.878906-148.785156zm0 0"/><path d="m112.015625 272.03125h112c4.417969 0 8-3.582031 8-8v-16h24c22.089844 0 40-17.910156 40-40 0-22.09375-17.910156-40-40-40h-24v-8c0-4.417969-3.582031-8-8-8h-112c-4.417969 0-8 3.582031-8 8v104c0 4.417969 3.582031 8 8 8zm120-88h24c13.253906 0 24 10.742188 24 24 0 13.253906-10.746094 24-24 24h-24zm-112-16h96v88h-96zm0 0"/><path d="m125.71875 113.046875-12.359375 18.542969 13.3125 8.878906 16-24c2.113281-3.171875 1.695313-7.398438-1-10.09375l-11.363281-11.359375 12.363281-18.546875-13.3125-8.878906-16 24c-2.117187 3.171875-1.699219 7.398437 1 10.097656zm0 0"/><path d="m165.71875 113.046875-12.359375 18.542969 13.3125 8.878906 16-24c2.113281-3.171875 1.695313-7.398438-1-10.09375l-11.363281-11.359375 12.363281-18.546875-13.3125-8.878906-16 24c-2.117187 3.171875-1.699219 7.398437 1 10.097656zm0 0"/><path d="m205.71875 113.046875-12.359375 18.542969 13.3125 8.878906 16-24c2.113281-3.171875 1.695313-7.398438-1-10.09375l-11.363281-11.359375 12.363281-18.546875-13.3125-8.878906-16 24c-2.117187 3.171875-1.699219 7.398437 1 10.097656zm0 0"/></svg>