<svg height="480pt" viewBox="-56 0 480 480.02859" width="480pt" xmlns="http://www.w3.org/2000/svg"><path d="m360.015625 184.03125c.015625-91.996094-70.816406-168.484375-162.539063-175.519531-91.726562-7.035157-173.394531 57.753906-187.410156 148.675781-14.011718 90.921875 44.359375 177.292969 133.949219 198.203125l40 116.640625 40-116.640625c79.582031-18.671875 135.886719-89.613281 136-171.359375zm0 0" fill="#005e9c"/><path d="m328.015625 183.6875c0 79.527344-64.472656 144-144 144-79.53125 0-144-64.472656-144-144 0-79.53125 64.46875-144 144-144 79.527344 0 144 64.46875 144 144zm0 0" fill="#168fba"/><path d="m152.015625 88.03125h16v208h-16zm0 0" fill="#7d4739"/><g fill="#6fb944"><path d="m194.359375 125.6875-34.34375-34.34375-34.34375 34.34375-11.3125-11.3125 40-40c3.121094-3.125 8.1875-3.125 11.3125 0l40 40zm0 0"/><path d="m202.359375 181.6875-42.34375-42.34375-42.34375 42.34375-11.3125-11.3125 48-48c3.121094-3.125 8.1875-3.125 11.3125 0l48 48zm0 0"/><path d="m194.359375 221.6875-34.34375-34.34375-34.34375 34.34375-11.3125-11.3125 40-40c3.121094-3.125 8.1875-3.125 11.3125 0l40 40zm0 0"/></g><path d="m80.015625 152.03125h16v96h-16zm0 0" fill="#7d4739"/><path d="m122.359375 189.6875-34.34375-34.34375-10.34375 10.34375-11.3125-11.3125 16-16c3.121094-3.125 8.1875-3.125 11.3125 0l40 40zm0 0" fill="#6fb944"/><path d="m122.359375 237.6875-34.34375-34.34375-10.34375 10.34375-11.3125-11.3125 16-16c3.121094-3.125 8.1875-3.125 11.3125 0l40 40zm0 0" fill="#6fb944"/><path d="m248.015625 208.03125 48-48v57.503906c0 25.679688-20.824219 46.5-46.503906 46.496094h-89.496094l72-72zm0 0" fill="#f29a2b"/><path d="m242.359375 213.683594 11.3125-11.3125 36 36-11.3125 11.3125zm0 0" fill="#c46525"/><path d="m165.671875 269.6875-11.3125-11.3125 72-72c3.121094-3.125 8.1875-3.125 11.3125 0l10.34375 10.34375 42.34375-42.34375 11.3125 11.3125-48 48c-3.125 3.121094-8.191406 3.121094-11.3125 0l-10.34375-10.34375zm0 0" fill="#c46525"/><path d="m184.015625 335.6875c83.945313 0 152-68.054688 152-152 0-83.949219-68.054687-152-152-152-83.949219 0-152 68.050781-152 152 .089844 83.90625 68.089844 151.90625 152 152zm0-288c75.109375 0 136 60.886719 136 136 0 75.109375-60.890625 136-136 136-75.113281 0-136-60.890625-136-136 .082031-75.078125 60.921875-135.917969 136-136zm0 0"/><path d="m137.863281 362.117188 38.582031 112.503906c1.109376 3.234375 4.148438 5.40625 7.570313 5.40625 3.417969 0 6.457031-2.171875 7.566406-5.40625l38.585938-112.503906c89.664062-23.230469 148.082031-109.496094 136.371093-201.378907-11.710937-91.882812-89.898437-160.738281-182.523437-160.738281-92.628906 0-170.8125 68.855469-182.523437 160.738281-11.710938 91.882813 46.703124 178.148438 136.371093 201.378907zm46.152344-346.085938c85.289063.074219 156.988281 64.046875 166.746094 148.777344 9.757812 84.730468-45.523438 163.328125-128.5625 182.789062-2.6875.625-4.859375 2.589844-5.753907 5.199219l-32.429687 94.570313-32.433594-94.539063c-.894531-2.605469-3.066406-4.570313-5.75-5.199219-83.109375-19.402344-138.464843-98.035156-128.703125-182.816406 9.765625-84.785156 81.542969-148.777344 166.886719-148.78125zm0 0"/><path d="m96.015625 248.03125v-36.6875l26.34375 26.34375 11.3125-11.3125-6.34375-6.34375 24.6875-24.6875v100.6875h16v-28.6875l64-64 46.34375 46.34375 11.3125-11.3125-30.34375-30.34375 42.34375-42.34375-11.3125-11.3125-42.34375 42.34375-10.34375-10.34375c-3.125-3.125-8.191406-3.125-11.3125 0l-22.34375 22.34375-36-36v-25.375l34.34375 34.34375 11.3125-11.3125-45.65625-45.65625v-25.375l26.34375 26.34375 11.3125-11.3125-40-40c-3.125-3.125-8.191406-3.125-11.3125 0l-40 40 11.3125 11.3125 26.34375-26.34375v25.375l-36 36-22.34375-22.34375c-3.125-3.125-8.191406-3.125-11.3125 0l-16 16 11.3125 11.3125 2.34375-2.34375v25.375l-13.65625 13.65625 11.3125 11.3125 2.34375-2.34375v36.6875zm72-52.6875 24.6875 24.6875-24.6875 24.6875zm-72-32 26.34375 26.34375 11.3125-11.3125-6.34375-6.34375 24.6875-24.6875v25.375l-36 36-20-20zm0 0"/></svg>