<svg height="479pt" viewBox="-56 1 479 479.99867" width="479pt" xmlns="http://www.w3.org/2000/svg"><path d="m360.382812 184c.019532-91.996094-70.8125-168.484375-162.539062-175.519531-91.722656-7.035157-173.394531 57.757812-187.40625 148.675781-14.011719 90.921875 44.359375 177.296875 133.945312 198.203125l40 116.640625 40-116.640625c79.585938-18.671875 135.886719-89.613281 136-171.359375zm0 0" fill="#005e9c"/><path d="m328.382812 183.65625c0 79.527344-64.46875 144-144 144-79.527343 0-144-64.472656-144-144s64.472657-144 144-144c79.53125 0 144 64.472656 144 144zm0 0" fill="#168fba"/><path d="m144.382812 169.753906-16 4v-61.753906h-16v61.753906l-16-4v-57.753906h-16v64c.003907 3.671875 2.503907 6.871094 6.066407 7.761719l25.933593 6.476562v89.761719h16v-89.761719l25.9375-6.476562c3.5625-.890625 6.0625-4.089844 6.0625-7.761719v-64h-16zm0 0" fill="#d8d8d3"/><path d="m288.382812 160c0-19.199219-15.574218-56-40-56-24.421874 0-40 36.800781-40 56 .023438 19 13.390626 35.371094 32 39.199219v80.800781h16v-80.800781c18.613282-3.828125 31.976563-20.199219 32-39.199219zm0 0" fill="#d8d8d3"/><path d="m184.382812 31.65625c-83.945312 0-152 68.050781-152 152 0 83.945312 68.054688 152 152 152 83.949219 0 152-68.054688 152-152-.089843-83.910156-68.089843-151.90625-152-152zm0 288c-75.109374 0-136-60.890625-136-136s60.890626-136 136-136c75.113282 0 136 60.890625 136 136-.082031 75.074219-60.921874 135.914062-136 136zm0 0"/><path d="m184.382812 0c-92.582031.0585938-170.699218 68.898438-182.40625 160.734375-11.707031 91.839844 46.648438 178.074219 136.253907 201.355469l38.585937 112.503906c1.109375 3.230469 4.148438 5.40625 7.566406 5.40625 3.421876 0 6.460938-2.175781 7.570313-5.40625l38.582031-112.503906c89.609375-23.28125 147.964844-109.515625 136.257813-201.355469-11.707031-91.835937-89.828125-160.6757812-182.410157-160.734375zm38.175782 347.566406c-2.679688.628906-4.851563 2.59375-5.742188 5.203125l-32.433594 94.566407-32.429687-94.535157c-.890625-2.609375-3.0625-4.570312-5.746094-5.199219-83.117187-19.394531-138.480469-98.03125-128.71875-182.820312 9.757813-84.789062 81.546875-148.785156 166.894531-148.785156 85.351563 0 157.136719 63.996094 166.898438 148.785156s-45.605469 163.425781-128.722656 182.820312zm0 0"/><path d="m144.382812 169.753906-16 4v-61.753906h-16v61.753906l-16-4v-57.753906h-16v64c.003907 3.671875 2.503907 6.871094 6.066407 7.761719l25.933593 6.476562v89.761719h16v-89.761719l25.9375-6.476562c3.5625-.890625 6.0625-4.089844 6.0625-7.761719v-64h-16zm0 0"/><path d="m248.382812 104c-24.421874 0-40 36.800781-40 56 .023438 19 13.390626 35.371094 32 39.199219v80.800781h16v-80.800781c18.613282-3.828125 31.976563-20.199219 32-39.199219 0-19.199219-15.574218-56-40-56zm0 80c-13.253906 0-24-10.746094-24-24 0-15.800781 12.875-40 24-40 11.128907 0 24 24.199219 24 40 0 13.253906-10.742187 24-24 24zm0 0"/></svg>